<?xml version="1.0" encoding="UTF-8"?>
<svg version="1.1" xmlns="http://www.w3.org/2000/svg" width="512" height="512">
<path d="M0 0 C9.9 0 19.8 0 30 0 C30 4.62 30 9.24 30 14 C32.08996811 13.99777939 34.17993622 13.99555878 36.33323669 13.99327087 C55.97898097 13.97287147 75.62472386 13.95797065 95.27047634 13.94818783 C105.37180943 13.94302441 115.47313477 13.93598085 125.57446289 13.92456055 C134.37544464 13.9146151 143.17642078 13.90814691 151.97740799 13.90591151 C156.64046267 13.90460416 161.30350128 13.90151682 165.96655083 13.89426994 C170.35032366 13.88751191 174.73407371 13.88538259 179.11785126 13.88689232 C180.73160234 13.88661589 182.34535413 13.88460948 183.95910072 13.88079453 C186.1526889 13.87586066 188.3461897 13.87700056 190.53977966 13.87974548 C191.7703733 13.87882369 193.00096693 13.8779019 194.26885128 13.87695217 C197 14 197 14 198 15 C198.09326716 16.56547048 198.11745582 18.13512772 198.11352539 19.70336914 C198.11340454 20.71838501 198.11328369 21.73340088 198.11315918 22.7791748 C198.10804321 23.85364868 198.10292725 24.92812256 198.09765625 26.03515625 C198.09664917 27.01705933 198.09564209 27.9989624 198.09460449 29.01062012 C198.08935445 32.69459188 198.07539332 36.37854706 198.0625 40.0625 C198.041875 48.291875 198.02125 56.52125 198 65 C214.83 65 231.66 65 249 65 C249 108.89 249 152.78 249 198 C232.17 198 215.34 198 198 198 C198.03960937 214.73915174 198.03960937 214.73915174 198.09008789 231.47827148 C198.09300686 233.56754506 198.09555546 235.65681919 198.09765625 237.74609375 C198.10277222 238.84215942 198.10788818 239.9382251 198.11315918 241.06750488 C198.11334045 242.62048279 198.11334045 242.62048279 198.11352539 244.20483398 C198.115746 245.10862289 198.11796661 246.0124118 198.12025452 246.94358826 C198 249 198 249 197 250 C195.31198015 250.09353163 193.62004793 250.11744791 191.92944336 250.11352539 C190.84839828 250.11344986 189.76735321 250.11337433 188.65354919 250.11329651 C186.889515 250.10555458 186.889515 250.10555458 185.08984375 250.09765625 C183.89267227 250.0962413 182.69550079 250.09482635 181.46205139 250.09336853 C177.62050934 250.08774979 173.77902457 250.07519411 169.9375 250.0625 C167.34049563 250.05748741 164.74349035 250.05292409 162.14648438 250.04882812 C155.76430321 250.03777427 149.3821557 250.02101792 143 250 C143 250.99 143 251.98 143 253 C143.99 253 144.98 253 146 253 C146 255.31 146 257.62 146 260 C147.32 260 148.64 260 150 260 C150 260.99 150 261.98 150 263 C150.99 263 151.98 263 153 263 C153 264.32 153 265.64 153 267 C154.32 267 155.64 267 157 267 C157 267.99 157 268.98 157 270 C157.99 270 158.98 270 160 270 C160 271.32 160 272.64 160 274 C160.99 274 161.98 274 163 274 C163 275.98 163 277.96 163 280 C164.32 280 165.64 280 167 280 C167 281.32 167 282.64 167 284 C167.99 284 168.98 284 170 284 C170 284.99 170 285.98 170 287 C171.32 287.33 172.64 287.66 174 288 C174 288.99 174 289.98 174 291 C174.99 291 175.98 291 177 291 C177 291.99 177 292.98 177 294 C177.99 294 178.98 294 180 294 C180.433125 295.4540625 180.433125 295.4540625 180.875 296.9375 C181.64214682 300.10664203 181.64214682 300.10664203 184 301 C184 301.99 184 302.98 184 304 C184.99 304 185.98 304 187 304 C187 305.32 187 306.64 187 308 C188.32 308 189.64 308 191 308 C191 308.99 191 309.98 191 311 C191.99 311 192.98 311 194 311 C194 311.99 194 312.98 194 314 C194.99 314.33 195.98 314.66 197 315 C197 315.99 197 316.98 197 318 C198.32 318.66 199.64 319.32 201 320 C201 321.65 201 323.3 201 325 C201.99 325 202.98 325 204 325 C204 325.99 204 326.98 204 328 C205.32 328 206.64 328 208 328 C208 329.32 208 330.64 208 332 C208.99 332 209.98 332 211 332 C211 332.99 211 333.98 211 335 C212.32 335.33 213.64 335.66 215 336 C215 336.99 215 337.98 215 339 C215.99 339.33 216.98 339.66 218 340 C218 341.65 218 343.3 218 345 C218.99 345 219.98 345 221 345 C221 346.32 221 347.64 221 349 C222.32 349 223.64 349 225 349 C225 349.99 225 350.98 225 352 C225.99 352 226.98 352 228 352 C228 352.99 228 353.98 228 355 C229.32 355.33 230.64 355.66 232 356 C232 356.99 232 357.98 232 359 C232.99 359.33 233.98 359.66 235 360 C235 361.98 235 363.96 235 366 C235.99 366 236.98 366 238 366 C238 366.99 238 367.98 238 369 C239.32 369 240.64 369 242 369 C242 369.99 242 370.98 242 372 C242.99 372.33 243.98 372.66 245 373 C245 373.99 245 374.98 245 376 C246.32 376 247.64 376 249 376 C249 377.98 249 379.96 249 382 C248.360625 382.103125 247.72125 382.20625 247.0625 382.3125 C246.381875 382.539375 245.70125 382.76625 245 383 C244.67 383.99 244.34 384.98 244 386 C242.02 386 240.04 386 238 386 C238 386.99 238 387.98 238 389 C237.01 389 236.02 389 235 389 C235 390.32 235 391.64 235 393 C234.01 393 233.02 393 232 393 C232 393.99 232 394.98 232 396 C230.68 396 229.36 396 228 396 C228 397.32 228 398.64 228 400 C226.52093108 400.02689216 225.04172517 400.04634621 223.5625 400.0625 C222.73878906 400.07410156 221.91507813 400.08570313 221.06640625 400.09765625 C219 400 219 400 218 399 C217.95919217 397.00041636 217.95745644 394.99954746 218 393 C217.01 393 216.02 393 215 393 C215 391.68 215 390.36 215 389 C213.68 389 212.36 389 211 389 C211 388.01 211 387.02 211 386 C210.01 386 209.02 386 208 386 C208 385.01 208 384.02 208 383 C206.68 382.67 205.36 382.34 204 382 C204 381.01 204 380.02 204 379 C203.01 379 202.02 379 201 379 C201 376.69 201 374.38 201 372 C200.01 372 199.02 372 198 372 C198 371.01 198 370.02 198 369 C196.68 369 195.36 369 194 369 C194 368.01 194 367.02 194 366 C193.01 366 192.02 366 191 366 C191 364.68 191 363.36 191 362 C189.68 362 188.36 362 187 362 C186.67 361.01 186.34 360.02 186 359 C185.34 358.67 184.68 358.34 184 358 C184 356.02 184 354.04 184 352 C183.01 352 182.02 352 181 352 C181 351.01 181 350.02 181 349 C179.68 348.67 178.36 348.34 177 348 C177 347.01 177 346.02 177 345 C176.01 345 175.02 345 174 345 C174 344.01 174 343.02 174 342 C172.68 341.67 171.36 341.34 170 341 C170 340.01 170 339.02 170 338 C169.01 337.67 168.02 337.34 167 337 C167 335.02 167 333.04 167 331 C165.68 331 164.36 331 163 331 C163 330.01 163 329.02 163 328 C162.01 328 161.02 328 160 328 C160 327.01 160 326.02 160 325 C159.01 325 158.02 325 157 325 C157 323.68 157 322.36 157 321 C155.68 321 154.36 321 153 321 C152.67 318.69 152.34 316.38 152 314 C151.34 314 150.68 314 150 314 C150 313.01 150 312.02 150 311 C148.68 311 147.36 311 146 311 C146 310.01 146 309.02 146 308 C145.01 307.67 144.02 307.34 143 307 C143 306.01 143 305.02 143 304 C142.01 304 141.02 304 140 304 C140 303.01 140 302.02 140 301 C138.68 300.67 137.36 300.34 136 300 C136 298.02 136 296.04 136 294 C135.01 294 134.02 294 133 294 C133 292.68 133 291.36 133 290 C131.68 290 130.36 290 129 290 C129 289.01 129 288.02 129 287 C128.01 287 127.02 287 126 287 C126 286.01 126 285.02 126 284 C125.01 284 124.02 284 123 284 C122.505 282.515 122.505 282.515 122 281 C121.01 280.67 120.02 280.34 119 280 C119 277.69 119 275.38 119 273 C118.01 273 117.02 273 116 273 C116 272.01 116 271.02 116 270 C114.68 270 113.36 270 112 270 C112 269.01 112 268.02 112 267 C111.01 267 110.02 267 109 267 C109 265.68 109 264.36 109 263 C107.68 262.67 106.36 262.34 105 262 C105 261.34 105 260.68 105 260 C104.01 259.67 103.02 259.34 102 259 C102 257.02 102 255.04 102 253 C101.01 253 100.02 253 99 253 C99 252.01 99 251.02 99 250 C97.68 249.67 96.36 249.34 95 249 C95 248.01 95 247.02 95 246 C94.01 246 93.02 246 92 246 C92 245.01 92 244.02 92 243 C90.68 242.67 89.36 242.34 88 242 C88 241.01 88 240.02 88 239 C87.01 239 86.02 239 85 239 C85 236.69 85 234.38 85 232 C84.01 232 83.02 232 82 232 C82 231.01 82 230.02 82 229 C80.68 229 79.36 229 78 229 C78 228.01 78 227.02 78 226 C77.01 226 76.02 226 75 226 C75 223.69 75 221.38 75 219 C105.36 219 135.72 219 167 219 C167 202.17 167 185.34 167 168 C183.83 168 200.66 168 218 168 C218 144.24 218 120.48 218 96 C201.17 96 184.34 96 167 96 C167 79.17 167 62.34 167 45 C120.8 45 74.6 45 27 45 C27 40.38 27 35.76 27 31 C18.09 31 9.18 31 0 31 C0 20.77 0 10.54 0 0 Z " fill="#21C55D" transform="translate(125,73)"/>
<path d="M0 0 C9.9 0 19.8 0 30 0 C30 6.93 30 13.86 30 21 C40.23 21 50.46 21 61 21 C61 127.92 61 234.84 61 345 C50.77 345 40.54 345 30 345 C30 351.93 30 358.86 30 366 C20.1 366 10.2 366 0 366 C0 355.77 0 345.54 0 335 C8.91 335 17.82 335 27 335 C27 332.69 27 330.38 27 328 C33.6 328 40.2 328 47 328 C47 232.3 47 136.6 47 38 C40.4 38 33.8 38 27 38 C27 35.69 27 33.38 27 31 C18.09 31 9.18 31 0 31 C0 20.77 0 10.54 0 0 Z " fill="#21C55E" transform="translate(381,73)"/>
<path d="M0 0 C11.22 0 22.44 0 34 0 C34 5.61 34 11.22 34 17 C27.4 17 20.8 17 14 17 C14 112.7 14 208.4 14 307 C20.6 307 27.2 307 34 307 C34 312.61 34 318.22 34 324 C22.78 324 11.56 324 0 324 C0 217.08 0 110.16 0 0 Z " fill="#21C55D" transform="translate(70,94)"/>
<path d="M0 0 C9.9 0 19.8 0 30 0 C30 10.23 30 20.46 30 31 C20.1 31 10.2 31 0 31 C0 20.77 0 10.54 0 0 Z " fill="#22C45D" transform="translate(125,408)"/>
</svg>
